<svg xmlns="http://www.w3.org/2000/svg" viewBox="0 0 64 80" x="0px" y="0px"><title>Climate Control, AC, Air Vent Direction Face</title><g data-name="Air Vent Direction Face"><path d="M57,12a6,6,0,1,1-6-6A6.0066,6.0066,0,0,1,57,12Zm-9.1006,7.8672a5.999,5.999,0,0,0-7.6548,3.6611L37.2549,32H25.5a6.0109,6.0109,0,0,0-5.2095,3.0234l-8,14A6,6,0,1,0,22.71,54.9766L28.9819,44H41.5a6.0092,6.0092,0,0,0,5.6577-4.0029L51.56,27.5225A6.0081,6.0081,0,0,0,47.8994,19.8672ZM23,23.5488A2.0864,2.0864,0,0,0,24.2905,25.48a2.0978,2.0978,0,0,0,2.1851-.35l9.6006-5.6436a1.0044,1.0044,0,0,0,.1982-.1533,3.286,3.286,0,0,0-.0005-4.666.9869.9869,0,0,0-.1977-.1533L26.4756,8.8691A2.101,2.101,0,0,0,23,10.4512V13H10a3.0033,3.0033,0,0,0-3,3v2a3.0033,3.0033,0,0,0,3,3H23Z"/></g><text x="0" y="79" fill="#000000" font-size="5px" font-weight="bold" font-family="'Helvetica Neue', Helvetica, Arial-Unicode, Arial, Sans-serif">Created by debruder studio</text><text x="0" y="84" fill="#000000" font-size="5px" font-weight="bold" font-family="'Helvetica Neue', Helvetica, Arial-Unicode, Arial, Sans-serif">from the Noun Project</text></svg>