<svg xmlns="http://www.w3.org/2000/svg" viewBox="0 0 64 80" x="0px" y="0px"><title>Fan, AC, Air, Blow, Wind</title><g><path d="M37.4218,23.61c-.0162-.01-.0331-.02-.0494-.03C37.3887,23.59,37.4056,23.599,37.4218,23.61ZM40,32a8,8,0,1,1-8-8A8.0092,8.0092,0,0,1,40,32Zm-2,0a6.0066,6.0066,0,0,0-6-6,1,1,0,0,0,0,2,4.0045,4.0045,0,0,1,4,4,1,1,0,0,0,2,0ZM24.2617,25.6757a9.95,9.95,0,0,1,12.156-2.6335h0l4.752-4.4547a1,1,0,0,0,.2271-1.1416A23.7612,23.7612,0,0,0,36.95,11.4941L33.7783,8.3228A13.5133,13.5133,0,0,0,14.666,8.3223l-.3437.3432a5.005,5.005,0,0,0,0,7.0708Zm-.6814.9506c.01-.0156.0188-.032.0289-.0476C23.5992,26.5944,23.59,26.6106,23.58,26.6263ZM22,32a9.9231,9.9231,0,0,1,1.0422-4.4177v0l-4.4547-4.752a1,1,0,0,0-1.1416-.2271A23.7612,23.7612,0,0,0,11.4941,27.05L8.3228,30.2217A13.5133,13.5133,0,0,0,8.3223,49.334l.3432.3437a5.0047,5.0047,0,0,0,7.0708,0l9.9394-9.9394A9.9827,9.9827,0,0,1,22,32ZM55.6777,14.666l-.3432-.3437a5.0058,5.0058,0,0,0-7.0708,0l-9.9394,9.9394a9.9781,9.9781,0,0,1,2.49,12.4542l4.6324,4.4877a1,1,0,0,0,1.1079.1929A23.7612,23.7612,0,0,0,52.5059,36.95l3.1713-3.1714a13.5133,13.5133,0,0,0,.0005-19.1123Zm-29.1392,25.7-.0155-.0094Zm13.2-2.042a9.96,9.96,0,0,1-12.2977,2.5651h0l-4.6261,4.5388a1,1,0,0,0-.211,1.126A23.7612,23.7612,0,0,0,27.05,52.5059l3.1714,3.1713a13.5133,13.5133,0,0,0,19.1123.0005l.3437-.3432a5.005,5.005,0,0,0,0-7.0708Z"/></g><text x="0" y="79" fill="#000000" font-size="5px" font-weight="bold" font-family="'Helvetica Neue', Helvetica, Arial-Unicode, Arial, Sans-serif">Created by debruder studio</text><text x="0" y="84" fill="#000000" font-size="5px" font-weight="bold" font-family="'Helvetica Neue', Helvetica, Arial-Unicode, Arial, Sans-serif">from the Noun Project</text></svg>