<svg xmlns="http://www.w3.org/2000/svg" viewBox="0 0 64 80" x="0px" y="0px"><title>Air Vent Direction Foot, AC, Climate Control</title><g data-name="AC Direction"><path d="M61,13a6,6,0,1,1-6-6A6.0066,6.0066,0,0,1,61,13ZM50.6992,20.5752a6.1089,6.1089,0,0,0-6.5171,4.1318L41.2549,33H29.5a6.0109,6.0109,0,0,0-5.2095,3.0234l-7.9258,13.87a5.9984,5.9984,0,0,0,5.13,9.1074A6.0184,6.0184,0,0,0,26.71,55.9766L32.9819,45H45.5a6.0087,6.0087,0,0,0,5.6577-4.0029L55.56,28.5234a6.0052,6.0052,0,0,0-4.8609-7.9482ZM20.4805,36.291A2.0871,2.0871,0,0,0,18.5493,35H16V28a3.0033,3.0033,0,0,0-3-3H11a3.0033,3.0033,0,0,0-3,3v7H5.4512A2.1007,2.1007,0,0,0,3.87,38.4756l5.6445,9.6006a.9876.9876,0,0,0,.1529.1982,3.286,3.286,0,0,0,4.6655,0,1.0082,1.0082,0,0,0,.1533-.1982L20.13,38.4756A2.0968,2.0968,0,0,0,20.4805,36.291Z"/></g><text x="0" y="79" fill="#000000" font-size="5px" font-weight="bold" font-family="'Helvetica Neue', Helvetica, Arial-Unicode, Arial, Sans-serif">Created by debruder studio</text><text x="0" y="84" fill="#000000" font-size="5px" font-weight="bold" font-family="'Helvetica Neue', Helvetica, Arial-Unicode, Arial, Sans-serif">from the Noun Project</text></svg>