<svg xmlns="http://www.w3.org/2000/svg" xmlns:xlink="http://www.w3.org/1999/xlink" viewBox="0 0 27 38.75" version="1.1" x="0px" y="0px"><title>heat_steer_wheel</title><g stroke="none" stroke-width="1" fill="none" fill-rule="evenodd"><g fill="#000000" fill-rule="nonzero"><path d="M11.3226,4.17468 L12.5187,7.04526 C8.1066,7.45417 4.48611,10.5929 3.36207,14.7564 C6.52877,13.6196 9.9421,13.0002 13.5,13.0002 C17.058,13.0002 20.4712,13.6196 23.6379,14.7564 C23.4041,13.8904 23.0624,13.0688 22.628,12.3069 L22.628,12.3069 L25.8392,12.015 C26.5853,13.691 27,15.5471 27,17.5 C27,24.9559 20.9558,31 13.5,31 C6.04416,31 0,24.9559 0,17.5 C0,10.7854 4.90208,5.21578 11.3226,4.17468 L11.3226,4.17468 Z M17.8514,16.349 C17.9484,16.7164 18,17.1023 18,17.5002 C18,19.4595 16.7478,21.1264 15,21.7442 L15,27.8937 C19.8913,27.194 23.6952,23.1233 23.9825,18.1105 C22.0439,17.293 19.9898,16.6954 17.8514,16.349 Z M9.1486,16.349 C7.01031,16.6954 4.95616,17.2931 3.01746,18.1106 C3.30486,23.1233 7.10869,27.194 12,27.8937 L12,27.8937 L12,21.7441 C10.2522,21.1263 9,19.4595 9,17.5002 C9,17.1023 9.0517,16.7164 9.1486,16.349 Z M13.5,16.0002 C12.6716,16.0002 12,16.6718 12,17.5002 C12,18.3286 12.6716,19.0002 13.5,19.0002 C14.3285,19.0002 15,18.3286 15,17.5002 C15,16.6718 14.3285,16.0002 13.5,16.0002 Z M16.8358,0 C16.6203333,0.634746667 16.2321457,1.1144158 15.9135416,1.47712296 L15.7978,1.60773 L15.7479,1.66378 C15.2189,2.25983 15,2.55585 15,3 C15,3.40377273 15.1809091,3.68512397 15.6112472,4.18076296 L15.7479,4.33622 L15.7978,4.39227 C16.2719,4.92485 17,5.74264 17,7 C17,8.178775 16.3600684,8.97116523 15.8894305,9.5044583 L15.7978,9.6077 L15.7479,9.6638 C15.2669909,10.2056182 15.0423628,10.4995025 15.0054958,10.8821922 L15,11 L13,11 C13,9.8211875 13.6399316,9.02878613 14.1105695,8.4955083 L14.2022,8.39227 L14.2521,8.33622 C14.7811,7.74017 15,7.44415 15,7 C15,6.59622727 14.8190909,6.31487603 14.3887528,5.81923704 L14.2521,5.66378 L14.2022,5.60773 C13.7281,5.07515 13,4.25736 13,3 C13,1.821225 13.6399316,1.02879082 14.1105695,0.49550874 L14.2022,0.39227 L14.2521,0.33622 C14.3252333,0.253786667 14.3924556,0.177091111 14.4540037,0.104948148 L14.5421,0 L16.8358,0 Z M20.8358,0 C20.6203333,0.634746667 20.2321457,1.1144158 19.9135416,1.47712296 L19.7978,1.60773 L19.7479,1.66378 C19.2189,2.25983 19,2.55585 19,3 C19,3.40377273 19.1809091,3.68512397 19.6112472,4.18076296 L19.7479,4.33622 L19.7978,4.39227 C20.2719,4.92485 21,5.74264 21,7 C21,8.178775 20.3600684,8.97116523 19.8894305,9.5044583 L19.7978,9.6077 L19.7479,9.6638 C19.2669909,10.2056182 19.0423628,10.4995025 19.0054958,10.8821922 L19,11 L17,11 C17,9.8211875 17.6399316,9.02878613 18.1105695,8.4955083 L18.2022,8.39227 L18.2521,8.33622 C18.7811,7.74017 19,7.44415 19,7 C19,6.59622727 18.8190909,6.31487603 18.3887528,5.81923704 L18.2521,5.66378 L18.2022,5.60773 C17.7281,5.07515 17,4.25736 17,3 C17,1.821225 17.6399316,1.02879082 18.1105695,0.49550874 L18.2022,0.39227 L18.2521,0.33622 C18.3252333,0.253786667 18.3924556,0.177091111 18.4540037,0.104948148 L18.5421,0 L20.8358,0 Z M24.8358,0 C24.6203333,0.634746667 24.2321457,1.1144158 23.9135416,1.47712296 L23.7978,1.60773 L23.7479,1.66378 C23.2189,2.25983 23,2.55585 23,3 C23,3.40377273 23.1809091,3.68512397 23.6112472,4.18076296 L23.7479,4.33622 L23.7978,4.39227 C24.2719,4.92485 25,5.74264 25,7 C25,8.178775 24.3600684,8.97116523 23.8894305,9.5044583 L23.7978,9.6077 L23.7479,9.6638 C23.2669909,10.2056182 23.0423628,10.4995025 23.0054958,10.8821922 L23,11 L21,11 C21,9.8211875 21.6399316,9.02878613 22.1105695,8.4955083 L22.2022,8.39227 L22.2521,8.33622 C22.7811,7.74017 23,7.44415 23,7 C23,6.59622727 22.8190909,6.31487603 22.3887528,5.81923704 L22.2521,5.66378 L22.2022,5.60773 C21.7281,5.07515 21,4.25736 21,3 C21,1.821225 21.6399316,1.02879082 22.1105695,0.49550874 L22.2022,0.39227 L22.2521,0.33622 C22.3252333,0.253786667 22.3924556,0.177091111 22.4540037,0.104948148 L22.5421,0 L24.8358,0 Z"/></g></g><text x="0" y="46" fill="#000000" font-size="5px" font-weight="bold" font-family="'Helvetica Neue', Helvetica, Arial-Unicode, Arial, Sans-serif">Created by Anton Borzenkov</text><text x="0" y="51" fill="#000000" font-size="5px" font-weight="bold" font-family="'Helvetica Neue', Helvetica, Arial-Unicode, Arial, Sans-serif">from the Noun Project</text></svg>