<?xml version="1.0" encoding="UTF-8" standalone="no"?>
<!-- Uploaded to: SVG Repo, www.svgrepo.com, Generator: SVG Repo Mixer Tools -->

<svg
   fill="#000000"
   width="800"
   height="65.666664"
   viewBox="0 0 24 1.9699999"
   role="img"
   version="1.1"
   id="svg20"
   xmlns="http://www.w3.org/2000/svg"
   xmlns:svg="http://www.w3.org/2000/svg">
  <defs
     id="defs24" />
  <path
     d="m 2.335,0 v 0.873 c 0,0.255 -0.056,0.426 -0.18,0.55 C 1.99,1.585 1.718,1.651 1.315,1.651 H 0 V 1.907 H 1.428 C 2.105,1.907 2.584,1.815 2.833,1.56 2.976,1.414 3.045,1.231 3.045,0.93 V 0 Z M 5.023,0 3.37,1.908 H 3.782 L 4.13,1.502 h 2.104 l 0.35,0.406 H 7.38 L 5.724,9.9999991e-4 Z M 9.109,0 C 8.626,0 8.337,0.056 8.079,0.2 7.8058973,0.349359 7.6391669,0.638822 7.647,0.95 c 0,0.385 0.175,0.666 0.557,0.82 0.229,0.093 0.532,0.137 0.917,0.137 h 2.055 V 1.032 h -0.707 v 0.62 H 9.336 C 8.97,1.652 8.756,1.599 8.599,1.479 8.449,1.364 8.37,1.19 8.37,0.954 8.37,0.725 8.445,0.554 8.585,0.441 8.743,0.313 8.95,0.255 9.33,0.255 h 1.774 V 0 Z m 5.656,0 v 0.924 c 0,0.24 -0.03,0.393 -0.122,0.52 -0.154,0.217 -0.397,0.295 -0.896,0.295 h -0.06 C 13.211,1.739 12.946,1.661 12.792,1.445 12.701,1.317 12.67,1.172 12.67,0.924 V 9.9999991e-4 H 11.96 V 0.951 c 0,0.246 0.027,0.44 0.15,0.603 0.202,0.264 0.574,0.416 1.6,0.416 h 0.011 c 1.032,0 1.402,-0.152 1.604,-0.416 0.124,-0.163 0.15,-0.357 0.15,-0.603 V 9.9999991e-4 Z m 2.677,0 -1.654,1.907 H 16.2 l 0.349,-0.406 h 2.103 l 0.35,0.406 h 0.796 L 18.142,0 Z m 2.986,0 v 1.908 h 0.71 V 1.247 h 0.933 l 1.064,0.66 H 24 L 22.883,1.234 c 0.266,-0.009 0.493,-0.05 0.667,-0.143 0.170487,-0.0948 0.273577,-0.27704 0.267,-0.472 0,-0.255 -0.114,-0.418 -0.321,-0.51 C 23.311,0.029 23.083,9.9999991e-4 22.63,9.9999991e-4 Z m 0.71,0.24 h 1.399 c 0.266,0 0.384,0.026 0.465,0.086 0.077,0.058 0.105,0.146 0.105,0.283 v 0.036 c 0,0.123 -0.03,0.223 -0.12,0.286 -0.09,0.062 -0.214,0.075 -0.441,0.075 H 21.138 Z M 5.18,0.278 6.02,1.255 H 4.342 Z m 12.419,0 0.84,0.977 h -1.68 z"
     id="path18"
     style="fill:#7c7c7c;fill-opacity:1" />
</svg>
