<svg xmlns="http://www.w3.org/2000/svg" data-name="Layer 1" viewBox="0 0 100 125" x="0px" y="0px"><defs><style>.cls-1{fill-rule:evenodd;}</style></defs><path class="cls-1" d="M90.11,46.366a2.962,2.962,0,0,0-.99-1.939,3.265,3.265,0,0,0-2.176-.823,3.516,3.516,0,0,0-2.287.86A2.933,2.933,0,0,0,83.64,46.3a33.793,33.793,0,0,1-55.4,29.417,1.448,1.448,0,0,1,.787-2.547l9.814-1.318v0a3.11,3.11,0,1,0-.927-6.15L21.83,68.072a7.145,7.145,0,0,0-6.021,7.977L17.9,92.286a3.114,3.114,0,0,0,6.177-.792L22.916,82.9a1.448,1.448,0,0,1,2.369-1.3A40.225,40.225,0,0,0,90.112,46.4l0-.029ZM16.37,53.645a3.327,3.327,0,0,1-6.486-.088A40.3,40.3,0,0,1,74.8,18.185a1.448,1.448,0,0,0,2.369-1.3l-1.158-8.38a3.114,3.114,0,0,1,6.177-.792l2.087,16.237a7.145,7.145,0,0,1-6.02,7.977L62.169,34.305a3.11,3.11,0,1,1-.927-6.15v0l9.807-1.528a1.448,1.448,0,0,0,.8-2.547A33.912,33.912,0,0,0,16.37,53.645Z"/><text x="0" y="115" fill="#000000" font-size="5px" font-weight="bold" font-family="'Helvetica Neue', Helvetica, Arial-Unicode, Arial, Sans-serif">Created by clothesjepara</text><text x="0" y="120" fill="#000000" font-size="5px" font-weight="bold" font-family="'Helvetica Neue', Helvetica, Arial-Unicode, Arial, Sans-serif">from the Noun Project</text></svg>