<svg xmlns="http://www.w3.org/2000/svg" viewBox="0 0 64 80" x="0px" y="0px"><title>Air Vent Direction, Face, Heat, Climate Control</title><g data-name="AC Direction Foot and Heat"><path d="M41.55,12.28l-4.44,7.77a1.8949,1.8949,0,0,1-1.65.97,1.372,1.372,0,0,1-.4-.05,5.3549,5.3549,0,0,0,.43-4.83L35.03,15h.75l-1.82-3.19L32.14,15h.73l.77,1.89a3.2989,3.2989,0,0,1-.34,3.1l-.3.37a.71.71,0,0,0-.1.14c-.6-.11-1.28-.23-1.94-.33a5.4978,5.4978,0,0,0,.01-4.03L30.51,15h.71L29.4,11.81,27.58,15h.77l.76,1.89a3.298,3.298,0,0,1-.33,3.1l-.01.02h-.01a15.1006,15.1006,0,0,0-2.4.32,5.43,5.43,0,0,0,.09-4.19L25.98,15h.68l-1.82-3.19L23.02,15h.8l.77,1.89a3.2989,3.2989,0,0,1-.34,3.1l-.3.37a4.0657,4.0657,0,0,0-.43.65,1.8936,1.8936,0,0,1-1.83-.96l-4.43-7.77a1.8545,1.8545,0,0,1-.18-1.49,1.8811,1.8811,0,0,1,.95-1.17l3.52-1.87a16.6906,16.6906,0,0,1,15.7,0l3.53,1.87a1.9484,1.9484,0,0,1,.77,2.66ZM55,6a6,6,0,1,0,6,6A6.0066,6.0066,0,0,0,55,6ZM50.52,19.5742a6.1033,6.1033,0,0,0-6.5156,4.1319L41.0771,32H29.3223a6.0156,6.0156,0,0,0-5.21,3.0225L16.1865,48.8936A5.997,5.997,0,0,0,21.3174,58a6.0162,6.0162,0,0,0,5.2139-3.0234L32.8037,44H45.3223a6.0108,6.0108,0,0,0,5.6582-4.0029l4.4023-12.4746A6.007,6.007,0,0,0,50.52,19.5742ZM20.4805,35.291A2.0872,2.0872,0,0,0,18.5488,34H16V27a3.0033,3.0033,0,0,0-3-3H11a3.0033,3.0033,0,0,0-3,3v7H5.4512A2.1,2.1,0,0,0,3.87,37.4756l5.6436,9.6a.9986.9986,0,0,0,.1533.1982A3.2675,3.2675,0,0,0,12,48.2451h.001a3.2662,3.2662,0,0,0,2.332-.9717.9986.9986,0,0,0,.1533-.1982l5.6446-9.6A2.0993,2.0993,0,0,0,20.4805,35.291ZM30.33,21.25a4.1365,4.1365,0,0,0,.63-1.08A15.5853,15.5853,0,0,0,29,20a1.8484,1.8484,0,0,0-.23.01h-.01l-.29.35a5.25,5.25,0,0,0-.15,6.01.975.975,0,0,0,.82.42.9877.9877,0,0,0,.57-.18,1.0077,1.0077,0,0,0,.24-1.4,3.2909,3.2909,0,0,1,.07-3.59Zm-4.53,0a4.0368,4.0368,0,0,0,.56-.92c-1.05.21-1.97.45-2.24.52a1.8436,1.8436,0,0,1-.6.16,5.305,5.305,0,0,0,.28,5.36.97.97,0,0,0,.81.42,1.0185,1.0185,0,0,0,.58-.18,1.0077,1.0077,0,0,0,.24-1.4,3.2717,3.2717,0,0,1,.07-3.59Zm9.05,0c.07-.09.14-.18.21-.28a1.4039,1.4039,0,0,1-.35-.1c-.25-.06-.95-.21-1.81-.37a5.2719,5.2719,0,0,0-.06,5.87,1.0008,1.0008,0,0,0,.82.42,1.0421,1.0421,0,0,0,.58-.18,1.0056,1.0056,0,0,0,.23-1.4,3.2911,3.2911,0,0,1,.08-3.59Zm8.6468,18.4183"/></g><text x="0" y="79" fill="#000000" font-size="5px" font-weight="bold" font-family="'Helvetica Neue', Helvetica, Arial-Unicode, Arial, Sans-serif">Created by debruder studio</text><text x="0" y="84" fill="#000000" font-size="5px" font-weight="bold" font-family="'Helvetica Neue', Helvetica, Arial-Unicode, Arial, Sans-serif">from the Noun Project</text></svg>