<?xml version="1.0" encoding="UTF-8" standalone="no"?>
<svg xmlns:ffdec="https://www.free-decompiler.com/flash" xmlns:xlink="http://www.w3.org/1999/xlink" ffdec:objectType="shape" height="38.25px" width="94.6px" xmlns="http://www.w3.org/2000/svg">
  <g transform="matrix(1.0, 0.0, 0.0, 1.0, -27.8, -10.85)">
    <path d="M86.95 22.45 L90.5 30.4 83.1 30.4 86.95 22.45" fill="#000000" fill-rule="evenodd" stroke="none"/>
    <path d="M95.15 22.45 L98.7 30.4 91.3 30.4 95.15 22.45" fill="#000000" fill-rule="evenodd" stroke="none"/>
    <path d="M103.4 22.45 L106.95 30.4 99.55 30.4 103.4 22.45" fill="#000000" fill-rule="evenodd" stroke="none"/>
    <path d="M95.85 13.8 L107.15 15.1 Q114.55 16.45 120.4 19.5 L108.4 42.6 104.7 41.65 Q101.15 40.8 95.8 40.7 90.5 40.8 86.95 41.65 83.4 42.45 83.25 42.6 L71.25 19.5 Q77.1 16.45 84.5 15.1 91.9 13.8 95.8 13.8 L95.85 13.8 Z" fill="none" stroke="#000000" stroke-linecap="round" stroke-linejoin="round" stroke-width="4.0"/>
    <path d="M84.3 35.1 Q84.95 27.9 85.6 27.1 L89.35 28.7 Q88.8 29.3 88.3 35.1 88.4 37.05 89.5 38.75 90.95 40.75 91.2 44.5 91.2 46.55 90.7 48.05 L86.35 48.05 Q87.05 47.15 87.2 44.5 87.1 42.6 86.05 40.95 84.6 38.9 84.3 35.1" fill="#000000" fill-rule="evenodd" stroke="none"/>
    <path d="M97.75 38.75 Q99.15 40.75 99.45 44.5 99.45 46.55 98.95 48.05 L94.6 48.05 Q95.3 47.15 95.45 44.5 95.35 42.6 94.3 40.95 92.85 38.9 92.55 35.1 93.15 27.9 93.85 27.1 L97.6 28.7 Q97.05 29.3 96.55 35.1 96.65 37.05 97.75 38.75" fill="#000000" fill-rule="evenodd" stroke="none"/>
    <path d="M106.0 38.75 Q107.4 40.75 107.7 44.5 107.7 46.55 107.2 48.05 L102.85 48.05 Q103.55 47.15 103.7 44.5 103.6 42.6 102.55 40.95 101.1 38.9 100.8 35.1 101.4 27.9 102.1 27.1 L105.85 28.7 Q105.3 29.3 104.8 35.1 104.9 37.05 106.0 38.75" fill="#000000" fill-rule="evenodd" stroke="none"/>
    <path d="M27.8 10.85 L47.35 29.95 27.8 49.1 27.8 10.85" fill="#000000" fill-rule="evenodd" stroke="none"/>
  </g>
</svg>
