<?xml version="1.0" encoding="UTF-8" standalone="no"?>
<svg xmlns:ffdec="https://www.free-decompiler.com/flash" xmlns:xlink="http://www.w3.org/1999/xlink" ffdec:objectType="shape" fill="currentColor" stroke="currentColor" preserveAspectRatio="none" height="58px" width="150px" xmlns="http://www.w3.org/2000/svg">
  <g transform="matrix(1.0, 0.0, 0.0, 1.0, -29.0, -4.6)">
    <path d="M173.0 61.0 L173.85 56.05 Q174.6 51.2 171.95 47.45 169.35 43.65 164.55 42.65 159.75 41.95 155.95 44.6 152.2 47.25 151.25 52.05 L149.7 61.0 M164.4 6.6 Q158.9 6.75 155.25 10.4 151.6 14.05 151.45 19.6 151.6 25.1 155.25 28.8 158.9 32.45 164.4 32.6 169.9 32.45 173.6 28.8 177.25 25.15 177.4 19.6 177.25 14.05 173.6 10.4 169.95 6.75 164.4 6.6 Z" fill="none" stroke-linecap="round" stroke-linejoin="round" stroke-width="4.0"/>
    <path d="M29.0 11.4 L48.55 30.5 29.0 49.7 29.0 11.4"  fill-rule="evenodd" stroke="none"/>
  </g>
</svg>
